<?xml version="1.0" encoding="UTF-8" standalone="no"?><svg xmlns="http://www.w3.org/2000/svg" xmlns:xlink="http://www.w3.org/1999/xlink" fill="#ffffff" height="196.1" preserveAspectRatio="xMidYMid meet" version="1" viewBox="0.0 -0.4 192.2 196.1" width="192.2" zoomAndPan="magnify"><g id="change1_1"><path d="M142.64,166.83H24.8c-6.12,0-11.09-4.98-11.09-11.09V70.71c0-6.12,4.98-11.09,11.09-11.09h117.84 c6.12,0,11.09,4.98,11.09,11.09v85.03C153.73,161.85,148.76,166.83,142.64,166.83z M24.8,67.01c-2.04,0-3.7,1.66-3.7,3.7v85.03 c0,2.04,1.66,3.7,3.7,3.7h117.84c2.04,0,3.7-1.66,3.7-3.7V70.71c0-2.04-1.66-3.7-3.7-3.7H24.8z"/></g><g id="change1_2"><path d="M170.06,44.83h-61.8c-0.7-2.48-1.83-4.75-3.33-6.73l33.04-31.73c1.47-1.42,1.52-3.75,0.1-5.23 c-1.42-1.48-3.76-1.52-5.23-0.11L99.45,33.1c-3.12-1.94-6.8-3.06-10.73-3.06c-4.02,0-7.77,1.19-10.94,3.22L44.23,1.03 C42.76-0.38,40.42-0.34,39,1.14c-1.42,1.47-1.37,3.81,0.1,5.23l33.28,31.96c-1.42,1.93-2.51,4.12-3.19,6.5H22.18 C9.95,44.83,0,54.78,0,67.01v92.43c0,11.02,8.09,20.16,18.63,21.87l-1.21,8.33l-0.04,0.53c0,3.06,2.35,5.55,5.24,5.55h12.32 c2.78,0,5.07-2.31,5.23-5.22l1.29-8.88h109.32l1.29,8.88c0.16,2.91,2.44,5.22,5.23,5.22h12.32c2.89,0,5.24-2.49,5.24-5.55 l-1.26-8.86c10.55-1.7,18.64-10.85,18.64-21.87V67.01C192.24,54.78,182.29,44.83,170.06,44.83z M88.73,37.43 c5.13,0,9.62,2.99,11.7,7.39H77.03C79.11,40.42,83.59,37.43,88.73,37.43z M33.02,188.32h-7.93l0.97-6.7h7.93L33.02,188.32z M159.22,188.32l-0.97-6.7h7.93l0.97,6.7H159.22z M184.85,159.44c0,8.16-6.63,14.79-14.79,14.79H22.18 c-8.15,0-14.79-6.63-14.79-14.79V67.01c0-8.16,6.63-14.79,14.79-14.79h45.88h41.33h60.67c8.15,0,14.79,6.63,14.79,14.79V159.44z"/></g><g id="change1_3"><path d="M168.52,89.42c-6.12,0-11.09-4.98-11.09-11.09c0-6.12,4.98-11.09,11.09-11.09c6.12,0,11.09,4.98,11.09,11.09 C179.61,84.45,174.64,89.42,168.52,89.42z M168.52,74.64c-2.04,0-3.7,1.66-3.7,3.7s1.66,3.7,3.7,3.7c2.04,0,3.7-1.66,3.7-3.7 S170.56,74.64,168.52,74.64z"/></g><g id="change1_4"><path d="M168.52,114.84c-6.12,0-11.09-4.98-11.09-11.09c0-6.12,4.98-11.09,11.09-11.09c6.12,0,11.09,4.98,11.09,11.09 C179.61,109.87,174.64,114.84,168.52,114.84z M168.52,100.05c-2.04,0-3.7,1.66-3.7,3.7s1.66,3.7,3.7,3.7c2.04,0,3.7-1.66,3.7-3.7 S170.56,100.05,168.52,100.05z"/></g><g id="change1_5"><path d="M175.92,129.63h-14.79c-2.04,0-3.7-1.65-3.7-3.7c0-2.04,1.66-3.7,3.7-3.7h14.79c2.04,0,3.7,1.65,3.7,3.7 C179.61,127.98,177.96,129.63,175.92,129.63z"/></g><g id="change1_6"><path d="M175.92,144.42h-14.79c-2.04,0-3.7-1.65-3.7-3.7c0-2.04,1.66-3.7,3.7-3.7h14.79c2.04,0,3.7,1.65,3.7,3.7 C179.61,142.76,177.96,144.42,175.92,144.42z"/></g><g id="change1_7"><path d="M175.92,159.2h-14.79c-2.04,0-3.7-1.65-3.7-3.7c0-2.04,1.66-3.7,3.7-3.7h14.79c2.04,0,3.7,1.65,3.7,3.7 C179.61,157.55,177.96,159.2,175.92,159.2z"/></g><g id="change1_8"><path d="M68.62,139.94c-1,0-2.01-0.25-2.91-0.76c-1.87-1.05-3.04-3.04-3.04-5.19V92.46c0-2.15,1.16-4.14,3.04-5.19 c1.87-1.05,4.18-1.01,6.01,0.11l33.98,20.77c1.78,1.09,2.85,2.99,2.85,5.08c0,2.09-1.07,3.99-2.85,5.08l-33.98,20.77c0,0,0,0,0,0 C70.77,139.65,69.7,139.94,68.62,139.94z M69.8,135.91h0.04H69.8z M67.87,132.75C67.87,132.76,67.87,132.76,67.87,132.75 L67.87,132.75z M70.06,95.03v36.38l29.76-18.19L70.06,95.03z"/></g></svg>