<?xml version="1.0" encoding="UTF-8" standalone="no"?><svg xmlns="http://www.w3.org/2000/svg" xmlns:xlink="http://www.w3.org/1999/xlink" data-name="Layer 1" fill="#000000" height="2700.3" preserveAspectRatio="xMidYMid meet" version="1" viewBox="-79.4 -50.2 3072.3 2700.3" width="3072.3" zoomAndPan="magnify"><g id="change1_1"><path d="M2618.57,1965.41c37-37.7,72.51-78.55,112.71-114.13,285.77-252.94,750.62-119.54,859.46,246.66,62.1,208.94,8.18,396.63-114.09,568.22-105.16,147.57-252.3,249.5-398,352.07-176.92,124.59-356.11,246-512.8,396.91-44.87,43.21-93.93,82.08-141.08,122.94l8.72,13.05c-12.52-21.27-28.79-41.37-35.92-64.32-3.41-11,6.61-32.27,17.11-40.57,111.89-88.44,222.45-178.94,338.68-261.4,120.94-85.79,249.18-161.22,371.54-245.1,145-99.42,267.1-219.45,335.37-387.11,109.65-269.29,1-566.77-252.44-683.69-214.41-98.92-466.61-38.86-612.74,145.85-6.09,7.7-12.85,14.85-20.2,23.28-101.63-290.49-361-388.34-559.6-359.9-242,34.66-402.55,207.91-444.38,482.13C1554.73,1934.58,1720.11,1704,1943.51,1632,2165.58,1560.41,2495.67,1641.74,2618.57,1965.41Z" fill="#cccccc" transform="translate(-659.89 -901.04)"/></g><g id="change1_2"><path d="M1336.89,2498.69c-117.43-43.15-231.7-94.58-336.77-163.93-147.42-97.31-253.61-227.57-310.59-396.44-109-323,93.39-658,431.34-709.47,156.38-23.82,296.25,19.14,419.59,117.29,13.17,10.49,25.84,21.61,40.2,33.67,12.62-45.07,22.4-88.83,37.06-130.89,86.22-247.5,373.58-398.07,627-332.52C2483,978,2635.37,1164.9,2664.15,1416c4.75,41.49,5.6,83.85,3.55,125.57-2,41.48-10,82.67-22.13,123.49,0-60.06,6.08-120.87-1.11-180.06-24.67-203.21-122.37-358-313.39-444.72-291.56-132.35-642.38,50.43-702.48,365.16-2.12,11.07-4.64,22.06-7.71,36.52-22.15-18.5-42-36.37-63.1-52.48-179.54-136.8-427.24-142.5-602.72-14.26-190.58,139.27-263.52,373.36-189.24,591.6,66.17,194.39,197.27,330.35,372.23,428.59C1203.13,2432,1270.54,2464.4,1336.89,2498.69Z" fill="#cccccc" transform="translate(-659.89 -901.04)"/></g></svg>