<?xml version="1.0" encoding="UTF-8" standalone="no"?><svg xmlns="http://www.w3.org/2000/svg" xmlns:xlink="http://www.w3.org/1999/xlink" fill="#000000" height="221.1" preserveAspectRatio="xMidYMid meet" version="1" viewBox="80.0 102.0 265.1 221.1" width="265.1" zoomAndPan="magnify"><g id="change1_1"><path d="M309.94,229.49h-14.27l-83.07,81.65l-78.56-77.22h-14.27l89.32,87.8c0.97,0.96,2.24,1.44,3.5,1.44 s2.53-0.48,3.51-1.44l0,0L309.94,229.49 M279.75,102.04c-16.53-0.01-33.12,6.25-45.85,18.76l-21.3,20.94l-21.3-20.94 c-12.72-12.5-29.3-18.76-45.83-18.76c-0.01,0-0.01,0-0.02,0c-8.46,0-16.92,1.63-24.87,4.89c-7.95,3.26-15.39,8.16-21.78,14.66 c-12.51,12.72-18.77,29.31-18.76,45.85c0,8.46,1.63,16.92,4.89,24.87c3.26,7.95,8.16,15.39,14.67,21.78l10,9.83h14.27l-17.26-16.96 c-5.53-5.43-9.66-11.72-12.43-18.45c-2.76-6.73-4.15-13.9-4.15-21.07c0.01-14.04,5.28-28.03,15.89-38.84 c5.43-5.53,11.72-9.66,18.45-12.42c6.73-2.76,13.9-4.15,21.07-4.15c14.04,0.01,28.03,5.28,38.84,15.89l24.81,24.38 c0.97,0.96,2.24,1.44,3.5,1.44s2.53-0.48,3.51-1.44l24.81-24.38c10.8-10.61,24.8-15.89,38.83-15.89c7.17,0,14.34,1.39,21.07,4.15 c6.73,2.76,13.01,6.9,18.45,12.42c10.61,10.8,15.89,24.8,15.89,38.84c0,7.17-1.39,14.34-4.15,21.07 c-2.76,6.73-6.9,13.01-12.42,18.45l-12.74,12.53h14.27l5.49-5.39c6.5-6.39,11.4-13.83,14.66-21.78c3.26-7.95,4.89-16.41,4.89-24.87 c0-16.54-6.25-33.13-18.76-45.85c-6.39-6.5-13.83-11.4-21.78-14.66C296.67,103.68,288.21,102.04,279.75,102.04" fill="#ffffff"/></g><g id="change2_1"><path d="M109.6,223.93H91.1c-2.76,0-5,2.24-5,5c0,2.76,2.24,5,5,5h28.68L109.6,223.93 M332.72,219.49h-12.61l-10.17,10 h22.78c2.76,0,5-2.24,5-5S335.48,219.49,332.72,219.49 M198.48,167.13c-1.84,0-3.57,1.03-4.43,2.68l-28.41,54.12h-41.78l10.17,10 h34.62c1.87,0,3.56-1.02,4.43-2.68l24.4-46.49l23.55,69.2c0.55,1.61,1.88,2.84,3.54,3.25c0.4,0.1,0.8,0.14,1.19,0.14 c1.27,0,2.51-0.48,3.45-1.38l27.83-26.48h38.62l10.17-10h-50.79c-1.28,0-2.52,0.5-3.45,1.38l-23.62,22.47l-24.78-72.82 c-0.64-1.89-2.36-3.22-4.35-3.37C198.74,167.13,198.61,167.13,198.48,167.13" fill="#ffffff"/></g><g id="change3_1"><path d="M123.87,223.93H109.6l10.17,10h14.27L123.87,223.93 M320.11,219.49h-14.27l-10.17,10h14.27L320.11,219.49" fill="#ffffff"/></g></svg>