<?xml version="1.0" encoding="UTF-8" standalone="no"?><svg xmlns="http://www.w3.org/2000/svg" xmlns:xlink="http://www.w3.org/1999/xlink" fill="#ffffff" height="200.2" preserveAspectRatio="xMidYMid meet" version="1" viewBox="0.0 -0.2 193.9 200.2" width="193.9" zoomAndPan="magnify"><g data-name="Layer 2"><g data-name="Layer 1" id="change1_1"><path d="M0,81.11V197.88A2.12,2.12,0,0,0,2.12,200H183.39a2.12,2.12,0,0,0,2.12-2.12V81.11a2.15,2.15,0,0,0-.3-1.07l.12-.1.1-.08a1.07,1.07,0,0,0,.18-.19l.09-.1.15-.23a.31.31,0,0,0,.05-.1,1.94,1.94,0,0,0,.15-.36l7.5-26.08a2.12,2.12,0,0,0-1.45-2.62L177.68,46h0l-16.29-4.68h0l-14.3-4.11-20.71-6-12.17-3.5h0L98.26,23.2h0l-8.35-2.41-22.63-6.5h0l-2.14-.62L35.49,5.15h0L19.77.62h0L17.88.08a2.12,2.12,0,0,0-2.62,1.45L7.77,27.61A2.06,2.06,0,0,0,8,29.22a2.12,2.12,0,0,0,1.26,1L21.27,33.7h0L37,38.22h0l16.07,4.62h0l1.52.44L119.77,62l11.66,3.36h0l15.74,4.52h0l5.1,1.47L178.77,79H2.12A2.12,2.12,0,0,0,0,81.11Zm32.47,25L23.54,83.22H35.71l8.93,22.91Zm33.07,0L56.61,83.22H68l8.93,22.91Zm32.24,0L88.85,83.22H100.9l8.93,22.91Zm32.95,0L121.8,83.22h11.83l8.93,22.91Zm32.74,0-8.93-22.91h12.4l8.93,22.91ZM37.3,10.07,49,13.44l2.25,24.47-11.7-3.36Zm31.79,9.14L80,22.34l2.25,24.48L71.34,43.69Zm31,8.91,11.58,3.33,2.25,24.48L102.32,52.6Zm31.66,9.11,11.38,3.27L145.36,65,134,61.71Zm31.47,9,11.92,3.43,2.25,24.48-11.92-3.43ZM11.57,106.13H4.23V87.32Zm6-97.45,1.85,20.09-7-2ZM4.23,195.77V110.36h177v85.41Z"/></g></g></svg>