<?xml version="1.0" encoding="UTF-8" standalone="no"?><svg xmlns="http://www.w3.org/2000/svg" xmlns:xlink="http://www.w3.org/1999/xlink" fill="#ffffff" height="800" preserveAspectRatio="xMidYMid meet" version="1" viewBox="0.0 0.0 800.0 800.0" width="800" zoomAndPan="magnify"><g id="change1_1"><path d="M 597.351562 381.007812 L 287.371094 202.042969 C 271.996094 193.164062 252.777344 204.261719 252.777344 222.015625 L 252.777344 579.949219 C 252.777344 596.191406 270.363281 606.34375 284.429688 598.222656 L 597.351562 417.558594 C 611.417969 409.4375 611.417969 389.132812 597.351562 381.007812" fill="inherit"/><path d="M 643.558594 643.558594 C 578.503906 708.617188 492.003906 744.445312 400 744.445312 C 307.996094 744.445312 221.496094 708.617188 156.441406 643.558594 C 91.382812 578.503906 55.554688 492.003906 55.554688 400 C 55.554688 307.996094 91.382812 221.496094 156.441406 156.441406 C 221.496094 91.382812 307.996094 55.554688 400 55.554688 C 492.003906 55.554688 578.503906 91.382812 643.558594 156.441406 C 708.617188 221.496094 744.445312 307.996094 744.445312 400 C 744.445312 492.003906 708.617188 578.503906 643.558594 643.558594 Z M 400 0 C 179.085938 0 0 179.085938 0 400 C 0 620.914062 179.085938 800 400 800 C 620.914062 800 800 620.914062 800 400 C 800 179.085938 620.914062 0 400 0" fill="inherit"/></g></svg>