<?xml version="1.0" encoding="UTF-8" standalone="no"?><svg xmlns="http://www.w3.org/2000/svg" xmlns:xlink="http://www.w3.org/1999/xlink" fill="#cccccc" height="89.7" preserveAspectRatio="xMidYMid meet" version="1" viewBox="3.9 19.1 125.5 89.7" width="125.5" zoomAndPan="magnify"><g id="change1_1"><path d="M 121.050781 50.316406 C 121.183594 52.097656 121.210938 53.203125 121.078125 53.21875 C 120.957031 53.234375 120.695312 52.15625 120.394531 50.398438 C 120.082031 48.640625 119.746094 46.210938 119.171875 43.582031 C 118.875 42.273438 118.53125 41.046875 118.167969 39.949219 C 117.78125 38.855469 117.398438 37.890625 117.003906 37.101562 C 116.242188 35.546875 115.585938 34.621094 115.714844 34.539062 C 115.804688 34.476562 116.621094 35.21875 117.589844 36.785156 C 118.074219 37.554688 118.542969 38.535156 118.980469 39.652344 C 119.40625 40.773438 119.789062 42.039062 120.09375 43.382812 C 120.675781 46.070312 120.910156 48.539062 121.050781 50.316406" fill="inherit"/><path d="M 114.558594 64.703125 C 117.976562 63.597656 119.613281 59.382812 118.261719 56.089844 C 116.96875 52.964844 113.484375 51.871094 110.347656 52.757812 C 107.289062 53.621094 104.210938 56.328125 105.613281 59.867188 C 106.980469 63.320312 110.925781 65.476562 114.558594 64.703125 Z M 120.054688 56.210938 C 121.011719 60.324219 119.359375 64.753906 115.238281 66.222656 C 115.167969 66.265625 115.09375 66.296875 115 66.3125 C 114.910156 66.347656 114.828125 66.351562 114.75 66.359375 C 110.398438 67.132812 104.660156 64.421875 103.828125 59.707031 C 103.054688 55.332031 106.167969 51.703125 110.476562 51.015625 C 114.46875 50.382812 119.019531 51.808594 120.054688 56.210938" fill="inherit"/><path d="M 118.363281 66.464844 C 118.492188 66.515625 118.234375 67.445312 117.832031 68.945312 C 117.425781 70.445312 116.894531 72.535156 116.078125 74.800781 C 115.65625 75.933594 115.183594 76.992188 114.683594 77.917969 C 114.164062 78.832031 113.628906 79.628906 113.097656 80.234375 C 112.03125 81.464844 111.1875 81.945312 111.113281 81.867188 C 111.003906 81.765625 111.722656 81.0625 112.570312 79.824219 C 113.007812 79.207031 113.457031 78.414062 113.914062 77.515625 C 114.351562 76.609375 114.789062 75.582031 115.195312 74.476562 C 115.992188 72.265625 116.621094 70.199219 117.203125 68.738281 C 117.765625 67.273438 118.246094 66.414062 118.363281 66.464844" fill="inherit"/><path d="M 13.328125 105.488281 C 12.84375 104.09375 12.386719 102.695312 11.894531 101.304688 C 9.914062 100.546875 8.0625 99.449219 5.964844 99.105469 C 6.429688 100.609375 7.070312 102.066406 7.707031 103.503906 C 9.53125 103.722656 11.4375 104.707031 13.328125 105.488281 Z M 19.941406 105.683594 C 20.28125 105.457031 20.605469 105.210938 20.917969 104.949219 C 20.28125 103.519531 18.835938 102.621094 18.054688 101.285156 C 17.058594 101.820312 15.96875 102.132812 14.800781 102.03125 C 14.140625 101.976562 13.511719 101.84375 12.898438 101.65625 C 13.390625 103.0625 13.847656 104.480469 14.347656 105.886719 C 16.28125 106.578125 18.179688 106.859375 19.941406 105.683594 Z M 24.75 100.554688 C 23.738281 99.707031 22.886719 98.703125 22.042969 97.695312 C 21.980469 97.777344 21.914062 97.855469 21.847656 97.9375 C 20.996094 98.964844 19.953125 100.058594 18.757812 100.859375 C 19.445312 102.164062 20.824219 103.074219 21.558594 104.390625 C 22.753906 103.269531 23.785156 101.929688 24.75 100.554688 Z M 27.089844 97.097656 C 27.40625 96.640625 27.730469 96.164062 28.070312 95.675781 C 27.167969 94.789062 26.421875 93.773438 25.691406 92.746094 C 24.6875 94.203125 23.671875 95.648438 22.578125 97.035156 C 23.410156 98.027344 24.246094 99.015625 25.226562 99.863281 C 25.863281 98.925781 26.476562 97.984375 27.089844 97.097656 Z M 30.828125 91.855469 C 30.375 90.597656 29.777344 89.277344 28.765625 88.398438 C 27.878906 89.578125 27.035156 90.792969 26.199219 92.015625 C 26.929688 93.046875 27.664062 94.070312 28.558594 94.972656 C 29.265625 93.953125 30.019531 92.886719 30.828125 91.855469 Z M 34.378906 87.996094 C 33.789062 86.65625 33.070312 85.390625 32.414062 84.085938 C 31.277344 85.230469 30.242188 86.449219 29.265625 87.722656 C 30.285156 88.59375 30.9375 89.839844 31.429688 91.097656 C 32.34375 89.980469 33.320312 88.921875 34.378906 87.996094 Z M 39.546875 85.089844 C 38.925781 83.613281 38.304688 82.140625 37.570312 80.710938 C 35.90625 81.238281 34.386719 82.21875 33.046875 83.46875 C 33.046875 83.472656 33.046875 83.472656 33.046875 83.472656 C 33.699219 84.800781 34.433594 86.09375 35.042969 87.445312 C 36.410156 86.355469 37.902344 85.519531 39.546875 85.089844 Z M 44.082031 84.90625 C 43.796875 83.472656 43.480469 82.039062 42.890625 80.703125 C 42.578125 80.601562 42.253906 80.507812 41.90625 80.445312 C 40.691406 80.210938 39.515625 80.25 38.394531 80.488281 C 39.125 81.933594 39.75 83.421875 40.367188 84.910156 C 40.378906 84.910156 40.386719 84.910156 40.398438 84.90625 C 41.621094 84.707031 42.871094 84.710938 44.082031 84.90625 Z M 48.246094 86.488281 C 48.003906 85.730469 47.796875 84.957031 47.742188 84.164062 C 46.597656 82.988281 45.449219 81.859375 43.953125 81.125 C 44.421875 82.402344 44.703125 83.742188 44.96875 85.078125 C 46.125 85.363281 47.226562 85.835938 48.246094 86.488281 Z M 54.242188 91.910156 C 54.070312 90.75 53.652344 89.628906 53.246094 88.515625 C 52.417969 88.078125 51.628906 87.597656 50.890625 87.0625 C 50.097656 86.5 49.40625 85.855469 48.746094 85.191406 C 48.910156 85.921875 49.171875 86.636719 49.429688 87.34375 C 50.695312 88.398438 51.738281 89.613281 52.914062 90.785156 C 53.339844 91.195312 53.78125 91.570312 54.242188 91.910156 Z M 59.015625 94.359375 C 59.234375 94.4375 59.457031 94.515625 59.675781 94.59375 C 59.15625 93.238281 58.722656 91.855469 58.117188 90.53125 C 56.832031 90.121094 55.546875 89.636719 54.320312 89.054688 C 54.722656 90.1875 55.074219 91.332031 55.140625 92.523438 C 56.34375 93.277344 57.652344 93.851562 59.015625 94.359375 Z M 63.941406 67.484375 C 63.835938 65.4375 63.875 63.386719 64.039062 61.363281 C 62.964844 61.054688 61.910156 60.640625 60.8125 60.449219 C 60.726562 62.550781 60.800781 64.679688 61.023438 66.769531 C 61.984375 67.054688 62.96875 67.234375 63.941406 67.484375 Z M 64.925781 74.683594 C 64.453125 72.609375 64.148438 70.496094 63.996094 68.367188 C 63.046875 68.101562 62.082031 67.925781 61.136719 67.664062 C 61.414062 69.839844 61.855469 71.957031 62.457031 73.941406 C 62.496094 74.085938 62.546875 74.226562 62.597656 74.367188 C 63.382812 74.347656 64.167969 74.464844 64.925781 74.683594 Z M 64.191406 59.78125 C 64.398438 57.992188 64.695312 56.179688 65.066406 54.367188 C 63.96875 53.984375 62.808594 53.867188 61.660156 53.695312 C 61.242188 55.59375 60.96875 57.585938 60.851562 59.617188 C 61.96875 59.8125 63.027344 60.195312 64.117188 60.515625 C 64.140625 60.269531 64.164062 60.023438 64.191406 59.78125 Z M 66.242188 96.382812 C 65.734375 94.816406 65.027344 93.320312 64.539062 91.75 C 63.253906 91.699219 61.984375 91.570312 60.726562 91.261719 C 60.210938 91.136719 59.683594 90.996094 59.160156 90.84375 C 59.71875 92.195312 60.160156 93.59375 60.710938 94.949219 C 62.496094 95.546875 64.359375 96.058594 66.242188 96.382812 Z M 65.238281 53.546875 C 65.652344 51.691406 66.15625 49.835938 66.746094 48.007812 C 65.726562 47.75 64.695312 47.496094 63.683594 47.199219 C 63.113281 48.667969 62.613281 50.148438 62.179688 51.628906 C 62.0625 52.039062 61.949219 52.457031 61.84375 52.878906 C 62.988281 53.050781 64.148438 53.167969 65.238281 53.546875 Z M 67.015625 47.214844 C 67.503906 45.773438 68.054688 44.359375 68.664062 42.96875 C 67.742188 42.707031 66.8125 42.472656 65.910156 42.140625 C 65.210938 43.542969 64.570312 44.972656 63.992188 46.417969 C 64.988281 46.707031 66.003906 46.957031 67.015625 47.214844 Z M 68.257812 83.886719 C 68.375 84.003906 68.503906 84.113281 68.632812 84.226562 C 67.074219 81.554688 65.929688 78.648438 65.15625 75.632812 C 64.414062 75.386719 63.652344 75.226562 62.871094 75.207031 C 64.019531 78.46875 65.714844 81.46875 68.257812 83.886719 Z M 71.871094 36.898438 C 70.910156 36.773438 69.625 36.742188 68.980469 36.730469 C 68.015625 38.234375 67.121094 39.792969 66.292969 41.390625 C 67.1875 41.703125 68.101562 41.933594 69.011719 42.195312 C 69.851562 40.367188 70.804688 38.59375 71.871094 36.898438 Z M 72.636719 96.621094 C 72.742188 96.605469 72.847656 96.589844 72.953125 96.574219 C 72.46875 94.871094 71.910156 93.199219 71.035156 91.652344 C 69.164062 91.671875 67.285156 91.789062 65.425781 91.769531 C 65.949219 93.378906 66.683594 94.90625 67.164062 96.527344 C 68.992188 96.785156 70.839844 96.851562 72.636719 96.621094 Z M 75.339844 32.164062 C 74.453125 31.949219 73.554688 31.824219 72.664062 31.648438 C 71.558594 33 70.511719 34.414062 69.523438 35.894531 C 70.59375 35.902344 71.417969 35.960938 72.355469 36.140625 C 73.269531 34.75 74.261719 33.417969 75.339844 32.164062 Z M 73.78125 96.445312 C 74.84375 96.261719 75.898438 96.019531 76.953125 95.800781 C 76.144531 94.351562 75.21875 93.003906 74.105469 91.769531 C 73.890625 91.75 73.667969 91.730469 73.449219 91.714844 C 72.964844 91.710938 72.476562 91.726562 71.992188 91.660156 C 72.789062 93.175781 73.320312 94.796875 73.78125 96.445312 Z M 79.605469 27.980469 C 79.085938 27.808594 78.570312 27.652344 78.03125 27.535156 C 76.253906 28.480469 74.515625 29.589844 73.285156 30.917969 C 74.179688 31.082031 75.078125 31.226562 75.957031 31.464844 C 77.085938 30.214844 78.300781 29.050781 79.605469 27.980469 Z M 80.601562 95.277344 C 80.832031 95.269531 81.0625 95.257812 81.289062 95.246094 C 79.355469 94.597656 77.507812 93.660156 75.800781 92.40625 C 75.753906 92.371094 75.703125 92.339844 75.644531 92.304688 C 76.460938 93.347656 77.179688 94.460938 77.816406 95.636719 C 78.742188 95.460938 79.667969 95.324219 80.601562 95.277344 Z M 84.285156 24.808594 C 84.300781 24.796875 84.316406 24.789062 84.335938 24.777344 C 84.304688 24.761719 84.285156 24.738281 84.269531 24.71875 C 83.402344 25.011719 82.542969 25.34375 81.71875 25.734375 C 80.921875 26.105469 80.046875 26.511719 79.160156 26.960938 C 79.515625 27.058594 79.871094 27.175781 80.230469 27.304688 C 80.28125 27.320312 80.324219 27.351562 80.363281 27.382812 C 81.597656 26.4375 82.894531 25.566406 84.285156 24.808594 Z M 94.410156 21.082031 C 94.042969 21.042969 93.667969 21.007812 93.296875 21.003906 C 90.730469 20.949219 88.144531 21.261719 85.660156 21.941406 C 81.0625 23.199219 76.539062 25.265625 72.902344 28.421875 C 65.910156 34.5 61.363281 43.449219 59.492188 52.449219 C 57.464844 62.203125 57.652344 72.882812 63.230469 81.511719 C 64.539062 83.527344 66.03125 85.484375 67.882812 87.046875 C 69.164062 88.128906 71.117188 90.109375 72.945312 89.90625 C 71.886719 88.835938 70.933594 87.6875 70.074219 86.476562 C 68.289062 84.933594 66.378906 83.472656 65.09375 81.519531 C 63.09375 78.488281 61.699219 75.179688 61.035156 71.59375 C 60.332031 67.800781 59.949219 63.910156 60.085938 60.050781 C 60.054688 59.945312 60.058594 59.828125 60.097656 59.734375 C 60.195312 57.542969 60.460938 55.367188 60.933594 53.226562 C 60.941406 53.1875 60.953125 53.148438 60.964844 53.109375 C 61.234375 51.914062 61.566406 50.726562 61.976562 49.5625 C 63.230469 46.007812 64.710938 42.527344 66.585938 39.257812 C 68.335938 36.207031 70.28125 32.386719 72.992188 30.058594 C 77.621094 26.089844 83.195312 24.09375 88.957031 22.652344 C 90.734375 21.984375 92.566406 21.449219 94.410156 21.082031 Z M 98.960938 92.847656 C 122.625 83.40625 128.335938 50.257812 115.8125 30.097656 C 112.339844 24.902344 107.019531 22.4375 101.28125 22.117188 C 101.238281 22.125 101.191406 22.128906 101.148438 22.128906 C 100.847656 22.125 100.546875 22.109375 100.25 22.078125 C 97.800781 22.058594 95.285156 22.410156 92.828125 23.101562 C 84.160156 25.53125 77.324219 31.046875 72.769531 38.789062 C 65.714844 50.777344 62.550781 67.453125 68.621094 80.511719 C 70.328125 84.1875 72.734375 87.777344 75.898438 90.394531 C 75.957031 90.433594 76.007812 90.472656 76.054688 90.523438 C 76.230469 90.667969 76.414062 90.8125 76.605469 90.953125 C 78.34375 92.226562 79.902344 93.058594 82.058594 93.609375 C 82.265625 93.660156 82.410156 93.765625 82.503906 93.902344 C 87.847656 95.429688 93.832031 94.886719 98.960938 92.847656 Z M 117.265625 29.257812 C 129.449219 48.882812 125.109375 79.929688 104.183594 92.140625 C 99.480469 94.878906 93.832031 96.523438 88.328125 96.425781 C 88.261719 96.457031 88.1875 96.476562 88.109375 96.484375 C 85.042969 96.878906 81.871094 96.59375 78.824219 97.164062 C 76.480469 97.605469 74.039062 98.386719 71.632812 98.363281 C 67.421875 98.316406 63.328125 97.722656 59.367188 96.265625 C 55.515625 94.84375 52.976562 93.097656 50.117188 90.203125 C 47.175781 87.230469 42.824219 85.140625 38.75 87.210938 C 32.542969 90.359375 29.144531 97.375 25.109375 102.734375 C 23.242188 105.214844 21.203125 107.585938 17.988281 108.109375 C 14.097656 108.746094 10.957031 105.25 7.15625 105.128906 C 6.832031 105.117188 6.601562 104.953125 6.472656 104.734375 C 6.425781 104.679688 6.378906 104.613281 6.339844 104.53125 C 5.457031 102.535156 4.53125 100.507812 4.027344 98.378906 C 3.925781 97.957031 4.132812 97.632812 4.425781 97.464844 C 4.554688 97.371094 4.722656 97.3125 4.921875 97.320312 C 6.457031 97.371094 7.878906 97.683594 9.273438 98.34375 C 11.253906 99.289062 13.703125 100.914062 16.011719 100.253906 C 19.59375 99.210938 21.738281 95.433594 23.757812 92.550781 C 26.871094 88.09375 30.101562 82.457031 35.132812 79.910156 C 40.847656 77.003906 46.105469 79.601562 50.121094 84.023438 C 53.109375 87.316406 58.546875 89.613281 62.988281 89.917969 C 64.96875 90.054688 66.945312 90.003906 68.921875 89.976562 C 65.859375 87.699219 63.203125 84.921875 61.3125 81.566406 C 56.210938 72.515625 55.613281 62.019531 57.878906 52.011719 C 60.042969 42.433594 64.722656 32.949219 72.433594 26.652344 C 76.085938 23.675781 80.636719 21.4375 85.214844 20.324219 C 87.753906 19.710938 90.667969 19.058594 93.296875 19.328125 C 95.933594 19.605469 98.480469 20.429688 101.148438 20.457031 C 101.292969 20.457031 101.414062 20.492188 101.519531 20.546875 C 107.648438 20.886719 113.390625 23.460938 117.265625 29.257812" fill="inherit"/><path d="M 107.734375 47.949219 C 110.632812 45.859375 112.84375 41.992188 112.308594 38.339844 C 111.492188 34.6875 108.574219 32 104.796875 33.976562 C 101.628906 35.625 99.710938 38.871094 99.574219 42.445312 C 99.480469 44.886719 100.0625 47.53125 102.574219 48.589844 C 104.328125 49.332031 106.195312 49.058594 107.734375 47.949219 Z M 113.941406 38.105469 C 114.535156 42.941406 111.527344 48.285156 107.03125 50.203125 C 102.253906 52.242188 97.691406 47.960938 97.875 43.152344 C 98.046875 38.535156 100.304688 33.511719 105.078125 32.0625 C 109.578125 30.695312 112.835938 33.421875 113.867188 37.707031 C 113.890625 37.761719 113.90625 37.824219 113.917969 37.894531 C 113.933594 37.96875 113.941406 38.039062 113.941406 38.105469" fill="inherit"/><path d="M 108.488281 78.230469 C 109.21875 75.113281 108.039062 72.332031 104.785156 71.4375 C 102.425781 70.796875 99.308594 70.886719 97.378906 72.609375 C 94.511719 75.164062 95.304688 79.925781 97.445312 82.746094 C 101.59375 88.214844 106.910156 82.894531 108.488281 78.230469 Z M 105.230469 69.828125 C 109.261719 71.152344 111.007812 74.398438 110.144531 78.453125 C 110.136719 78.527344 110.125 78.597656 110.097656 78.671875 C 110.082031 78.742188 110.058594 78.804688 110.03125 78.867188 C 108.570312 82.910156 103.421875 89.550781 98.53125 86.078125 C 94.632812 83.3125 92.136719 76.777344 95.160156 72.527344 C 97.273438 69.554688 101.917969 68.738281 105.230469 69.828125" fill="inherit"/><path d="M 107.503906 27.183594 C 107.984375 27.5625 108.226562 27.796875 108.1875 27.847656 C 108.144531 27.894531 107.835938 27.769531 107.308594 27.488281 C 106.792969 27.199219 106.023438 26.824219 105.058594 26.40625 C 104.566406 26.222656 104.046875 25.984375 103.449219 25.820312 C 103.15625 25.734375 102.855469 25.628906 102.542969 25.542969 C 102.222656 25.476562 101.894531 25.398438 101.554688 25.324219 C 100.207031 25.058594 98.695312 24.914062 97.105469 24.984375 C 93.914062 25.148438 91.121094 26.074219 89.164062 26.847656 C 87.210938 27.632812 86.019531 28.257812 85.945312 28.125 C 85.902344 28.023438 86.945312 27.214844 88.890625 26.238281 C 90.820312 25.292969 93.703125 24.214844 97.058594 24.042969 C 98.734375 23.96875 100.332031 24.148438 101.746094 24.476562 C 102.097656 24.574219 102.4375 24.660156 102.765625 24.75 C 103.09375 24.851562 103.40625 24.972656 103.707031 25.085938 C 104.320312 25.285156 104.84375 25.578125 105.339844 25.804688 C 106.300781 26.316406 107.042969 26.792969 107.503906 27.183594" fill="inherit"/><path d="M 99.652344 59.773438 C 99.667969 59.4375 99.660156 58.488281 99.179688 58.417969 C 98.636719 58.339844 98.082031 59.523438 97.953125 59.902344 C 97.847656 60.203125 97.714844 60.589844 97.835938 60.910156 C 97.953125 61.195312 98.335938 61.171875 98.609375 61.144531 C 99.28125 61.015625 99.621094 60.429688 99.652344 59.773438 Z M 99.222656 57.585938 C 100.195312 57.625 100.527344 58.890625 100.488281 59.671875 C 100.4375 60.710938 99.925781 61.761719 98.816406 61.953125 C 98.792969 61.957031 98.777344 61.953125 98.753906 61.953125 C 98.738281 61.957031 98.726562 61.964844 98.707031 61.96875 C 97.3125 62.121094 96.667969 61.054688 97.109375 59.789062 C 97.410156 58.914062 98.125 57.546875 99.222656 57.585938" fill="inherit"/><path d="M 92.707031 68.027344 C 101.074219 70.441406 105.632812 55.839844 98.621094 51.832031 C 89.816406 46.785156 84.964844 64.421875 92.707031 68.027344 Z M 98.617188 50.476562 C 106.957031 55.253906 102.613281 72.15625 92.359375 69.152344 C 92.320312 69.140625 92.296875 69.117188 92.265625 69.101562 C 92.246094 69.097656 92.234375 69.097656 92.21875 69.089844 C 87.890625 67.179688 87.042969 61.109375 88.085938 56.976562 C 89.148438 52.769531 93.796875 47.722656 98.617188 50.476562" fill="inherit"/><path d="M 94.554688 55.183594 C 95.699219 56.359375 97.394531 54.484375 96.667969 53.257812 C 95.777344 52.03125 93.519531 54.105469 94.554688 55.183594 Z M 97.394531 52.835938 C 98.015625 53.878906 97.601562 55.199219 96.679688 55.925781 C 95.828125 56.597656 94.460938 56.539062 93.820312 55.589844 C 92.453125 53.546875 95.660156 50.847656 97.273438 52.703125 C 97.316406 52.734375 97.359375 52.773438 97.394531 52.835938" fill="inherit"/><path d="M 94.574219 66.496094 C 96.105469 66.53125 96.40625 63.289062 95.152344 63.441406 C 94.429688 63.527344 93.949219 64.15625 93.84375 64.832031 C 93.734375 65.503906 93.824219 66.324219 94.574219 66.496094 Z M 95.363281 62.605469 C 97.769531 62.714844 96.910156 67.511719 94.523438 67.335938 C 94.5 67.335938 94.484375 67.324219 94.460938 67.316406 C 94.445312 67.316406 94.429688 67.324219 94.410156 67.324219 C 93.09375 67.09375 92.792969 65.609375 93.054688 64.488281 C 93.308594 63.441406 94.238281 62.550781 95.363281 62.605469" fill="inherit"/><path d="M 93.824219 90.097656 C 93.84375 90.160156 93.515625 90.296875 92.890625 90.511719 C 92.269531 90.746094 91.339844 90.933594 90.167969 91.089844 C 89.585938 91.140625 88.933594 91.222656 88.253906 91.234375 C 87.914062 91.253906 87.5625 91.261719 87.199219 91.273438 C 86.828125 91.269531 86.441406 91.257812 86.050781 91.253906 C 84.492188 91.179688 82.757812 90.902344 81.050781 90.230469 C 79.34375 89.5625 77.886719 88.546875 76.738281 87.480469 C 75.578125 86.417969 74.710938 85.300781 74.035156 84.347656 C 72.707031 82.40625 72.121094 81.089844 72.214844 81.03125 C 72.339844 80.953125 73.140625 82.15625 74.5625 83.945312 C 75.292969 84.832031 76.1875 85.859375 77.3125 86.835938 C 78.441406 87.8125 79.804688 88.730469 81.394531 89.355469 C 84.589844 90.617188 87.847656 90.476562 90.117188 90.425781 C 91.25 90.359375 92.175781 90.269531 92.804688 90.152344 C 93.441406 90.058594 93.808594 90.03125 93.824219 90.097656" fill="inherit"/><path d="M 91.203125 60.742188 C 92.019531 61.144531 92.570312 60.136719 92.566406 59.445312 C 92.566406 58.820312 92.320312 57.792969 91.574219 57.652344 C 90.703125 57.492188 90.300781 58.394531 90.273438 59.109375 C 90.300781 59.707031 90.640625 60.464844 91.203125 60.742188 Z M 91.488281 56.792969 C 92.726562 56.828125 93.480469 58.355469 93.402344 59.445312 C 93.328125 60.480469 92.628906 61.90625 91.355469 61.664062 C 90.207031 61.449219 89.492188 60.207031 89.4375 59.109375 C 89.488281 57.925781 90.195312 56.761719 91.488281 56.792969" fill="inherit"/><path d="M 89.570312 80.730469 C 90.609375 77.875 90.308594 73.535156 87.929688 71.378906 C 83.894531 67.714844 77.648438 72.957031 77.441406 77.472656 C 77.289062 80.683594 78.691406 84.375 82.210938 85.113281 C 85.632812 85.828125 88.132812 83.628906 89.570312 80.730469 Z M 88.105469 69.375 C 91.613281 71.96875 92.664062 77.292969 91.148438 81.28125 C 91.136719 81.308594 91.121094 81.332031 91.105469 81.359375 C 91.09375 81.398438 91.082031 81.4375 91.066406 81.476562 C 89.148438 85.429688 85.25 88.050781 80.84375 86.421875 C 76.84375 84.945312 74.769531 79.785156 76.019531 75.808594 C 77.359375 71.542969 83.425781 65.917969 88.105469 69.375" fill="inherit"/><path d="M 85.308594 49.839844 C 92.707031 49.800781 95.839844 38.179688 89.335938 34.472656 C 84.84375 31.90625 78.40625 35.027344 78.3125 40.414062 C 78.226562 44.90625 80.371094 49.410156 85.308594 49.839844 Z M 88.671875 32.28125 C 98.34375 35.351562 95.074219 51.183594 85.550781 51.503906 C 85.476562 51.511719 85.398438 51.523438 85.308594 51.511719 C 85.222656 51.511719 85.144531 51.503906 85.070312 51.480469 C 79.175781 50.828125 76.238281 45.375 76.6875 39.761719 C 77.144531 34.070312 83.476562 30.628906 88.671875 32.28125" fill="inherit"/><path d="M 84.722656 62.4375 C 86.738281 56.265625 78.261719 50.660156 73.132812 54.609375 C 69.261719 57.574219 68.570312 66.984375 75.109375 66.84375 C 78.796875 66.761719 82.988281 66.105469 84.722656 62.4375 Z M 70.578125 54.820312 C 76.164062 47.738281 89.332031 54.128906 86.3125 62.96875 C 86.296875 63.023438 86.273438 63.066406 86.246094 63.113281 C 86.242188 63.128906 86.234375 63.152344 86.230469 63.167969 C 85.183594 65.488281 83.175781 67.050781 80.730469 67.742188 C 78.535156 68.359375 75.03125 69.175781 72.824219 68.25 C 67.648438 66.078125 67.375 58.867188 70.578125 54.820312" fill="inherit"/><path d="M 74.519531 40.253906 C 74.625 40.355469 74.171875 40.960938 73.617188 42.015625 C 73.328125 42.535156 73.035156 43.1875 72.746094 43.917969 C 72.441406 44.648438 72.210938 45.46875 71.898438 46.378906 C 71.242188 48.171875 70.519531 49.660156 70.136719 50.800781 C 69.738281 51.886719 69.644531 52.679688 69.5 52.660156 C 69.390625 52.652344 69.234375 51.902344 69.496094 50.625 C 69.730469 49.390625 70.382812 47.777344 71.007812 46.066406 C 71.308594 45.210938 71.585938 44.320312 71.949219 43.578125 C 72.300781 42.824219 72.667969 42.167969 73.046875 41.660156 C 73.792969 40.640625 74.4375 40.175781 74.519531 40.253906" fill="inherit"/><path d="M 69.367188 76.074219 C 69.613281 76.941406 69.617188 77.523438 69.496094 77.550781 C 69.367188 77.574219 69.136719 77.085938 68.746094 76.308594 C 68.550781 75.910156 68.320312 75.4375 68.105469 74.867188 C 68.054688 74.722656 68.007812 74.578125 67.957031 74.425781 C 67.910156 74.261719 67.871094 74.09375 67.828125 73.925781 C 67.777344 73.746094 67.773438 73.601562 67.738281 73.433594 C 67.726562 73.34375 67.714844 73.300781 67.707031 73.167969 L 67.699219 72.910156 C 67.597656 70.152344 67.933594 68.003906 68.171875 67.996094 C 68.453125 67.996094 68.542969 70.21875 68.636719 72.84375 L 68.640625 73.089844 C 68.640625 73.117188 68.660156 73.238281 68.667969 73.304688 C 68.691406 73.464844 68.703125 73.648438 68.738281 73.773438 C 68.765625 73.914062 68.792969 74.054688 68.820312 74.1875 C 68.859375 74.328125 68.898438 74.464844 68.929688 74.601562 C 69.089844 75.140625 69.25 75.636719 69.367188 76.074219" fill="inherit"/></g></svg>